<svg xmlns="http://www.w3.org/2000/svg" xmlns:xlink="http://www.w3.org/1999/xlink" width="500" zoomAndPan="magnify" viewBox="0 0 375 374.999991" height="500" preserveAspectRatio="xMidYMid meet" version="1.0"><defs><g/><clipPath id="48a3116d49"><path d="M 133.792969 74.519531 L 241 74.519531 L 241 237.269531 L 133.792969 237.269531 Z M 133.792969 74.519531 " clip-rule="nonzero"/></clipPath><clipPath id="302f29edc1"><path d="M 205.652344 75.671875 C 204.675781 74.945312 203.46875 74.519531 202.167969 74.519531 C 198.925781 74.519531 196.273438 77.175781 196.273438 80.421875 L 196.273438 129.972656 L 187.421875 129.972656 C 157.898438 129.972656 133.855469 154.046875 133.855469 183.617188 C 133.855469 213.1875 157.898438 237.269531 187.421875 237.269531 C 216.949219 237.269531 240.996094 213.195312 240.996094 183.617188 L 240.996094 162.945312 L 229.199219 162.945312 L 229.199219 183.617188 C 229.199219 206.671875 210.441406 225.453125 187.421875 225.453125 C 164.410156 225.453125 145.65625 206.671875 145.65625 183.617188 C 145.65625 160.570312 164.410156 141.785156 187.421875 141.785156 L 196.273438 141.785156 L 196.273438 162.953125 L 187.421875 162.953125 C 176.070312 162.953125 166.78125 172.257812 166.78125 183.625 C 166.78125 194.992188 176.070312 204.300781 187.421875 204.300781 C 198.773438 204.300781 208.0625 195 208.0625 183.625 L 208.0625 182.804688 C 208.0625 158.578125 208.0625 134.347656 208.0625 110.121094 C 225.503906 108.027344 232.433594 124.59375 228.867188 159.828125 C 240.507812 142.832031 244.394531 119.339844 225.523438 100.503906 C 222.535156 97.515625 219.382812 94.605469 216.515625 91.640625 C 212.21875 87.207031 206.839844 76.550781 205.652344 75.671875 Z M 205.652344 75.671875 " clip-rule="evenodd"/></clipPath><linearGradient x1="209.444746" gradientTransform="matrix(0.7189, 0, 0, 0.719973, 133.849961, 74.519558)" y1="110.564093" x2="-0.492006" gradientUnits="userSpaceOnUse" y2="225.130085" id="845f597596"><stop stop-opacity="1" stop-color="rgb(0.378418%, 59.7229%, 85.163879%)" offset="0"/><stop stop-opacity="1" stop-color="rgb(0.628662%, 59.805298%, 84.941101%)" offset="0.00390625"/><stop stop-opacity="1" stop-color="rgb(0.880432%, 59.887695%, 84.718323%)" offset="0.0078125"/><stop stop-opacity="1" stop-color="rgb(1.130676%, 59.970093%, 84.495544%)" offset="0.0117187"/><stop stop-opacity="1" stop-color="rgb(1.382446%, 60.05249%, 84.272766%)" offset="0.015625"/><stop stop-opacity="1" stop-color="rgb(1.634216%, 60.134888%, 84.049988%)" offset="0.0195312"/><stop stop-opacity="1" stop-color="rgb(1.885986%, 60.217285%, 83.827209%)" offset="0.0234375"/><stop stop-opacity="1" stop-color="rgb(2.13623%, 60.299683%, 83.604431%)" offset="0.0273438"/><stop stop-opacity="1" stop-color="rgb(2.388%, 60.38208%, 83.381653%)" offset="0.03125"/><stop stop-opacity="1" stop-color="rgb(2.639771%, 60.464478%, 83.158875%)" offset="0.0351562"/><stop stop-opacity="1" stop-color="rgb(2.891541%, 60.546875%, 82.936096%)" offset="0.0390625"/><stop stop-opacity="1" stop-color="rgb(3.141785%, 60.629272%, 82.713318%)" offset="0.0429688"/><stop stop-opacity="1" stop-color="rgb(3.393555%, 60.71167%, 82.49054%)" offset="0.046875"/><stop stop-opacity="1" stop-color="rgb(3.645325%, 60.794067%, 82.267761%)" offset="0.0507812"/><stop stop-opacity="1" stop-color="rgb(3.897095%, 60.876465%, 82.044983%)" offset="0.0546875"/><stop stop-opacity="1" stop-color="rgb(4.147339%, 60.958862%, 81.822205%)" offset="0.0585938"/><stop stop-opacity="1" stop-color="rgb(4.399109%, 61.04126%, 81.599426%)" offset="0.0625"/><stop stop-opacity="1" stop-color="rgb(4.649353%, 61.123657%, 81.376648%)" offset="0.0664063"/><stop stop-opacity="1" stop-color="rgb(4.901123%, 61.206055%, 81.15387%)" offset="0.0703125"/><stop stop-opacity="1" stop-color="rgb(5.152893%, 61.288452%, 80.931091%)" offset="0.0742188"/><stop stop-opacity="1" stop-color="rgb(5.404663%, 61.37085%, 80.709839%)" offset="0.078125"/><stop stop-opacity="1" stop-color="rgb(5.654907%, 61.453247%, 80.487061%)" offset="0.0820312"/><stop stop-opacity="1" stop-color="rgb(5.906677%, 61.535645%, 80.264282%)" offset="0.0859375"/><stop stop-opacity="1" stop-color="rgb(6.158447%, 61.618042%, 80.041504%)" offset="0.0898438"/><stop stop-opacity="1" stop-color="rgb(6.410217%, 61.700439%, 79.818726%)" offset="0.09375"/><stop stop-opacity="1" stop-color="rgb(6.660461%, 61.782837%, 79.595947%)" offset="0.0976562"/><stop stop-opacity="1" stop-color="rgb(6.912231%, 61.865234%, 79.373169%)" offset="0.101562"/><stop stop-opacity="1" stop-color="rgb(7.164001%, 61.947632%, 79.150391%)" offset="0.105469"/><stop stop-opacity="1" stop-color="rgb(7.415771%, 62.030029%, 78.927612%)" offset="0.109375"/><stop stop-opacity="1" stop-color="rgb(7.666016%, 62.112427%, 78.704834%)" offset="0.113281"/><stop stop-opacity="1" stop-color="rgb(7.917786%, 62.194824%, 78.482056%)" offset="0.117188"/><stop stop-opacity="1" stop-color="rgb(8.169556%, 62.277222%, 78.259277%)" offset="0.121094"/><stop stop-opacity="1" stop-color="rgb(8.421326%, 62.359619%, 78.036499%)" offset="0.125"/><stop stop-opacity="1" stop-color="rgb(8.67157%, 62.442017%, 77.813721%)" offset="0.128906"/><stop stop-opacity="1" stop-color="rgb(8.92334%, 62.524414%, 77.590942%)" offset="0.132812"/><stop stop-opacity="1" stop-color="rgb(9.173584%, 62.606812%, 77.368164%)" offset="0.136719"/><stop stop-opacity="1" stop-color="rgb(9.425354%, 62.689209%, 77.145386%)" offset="0.140625"/><stop stop-opacity="1" stop-color="rgb(9.677124%, 62.771606%, 76.922607%)" offset="0.144531"/><stop stop-opacity="1" stop-color="rgb(9.928894%, 62.854004%, 76.699829%)" offset="0.148438"/><stop stop-opacity="1" stop-color="rgb(10.179138%, 62.936401%, 76.477051%)" offset="0.152344"/><stop stop-opacity="1" stop-color="rgb(10.430908%, 63.018799%, 76.254272%)" offset="0.15625"/><stop stop-opacity="1" stop-color="rgb(10.682678%, 63.101196%, 76.031494%)" offset="0.160156"/><stop stop-opacity="1" stop-color="rgb(10.934448%, 63.183594%, 75.808716%)" offset="0.164062"/><stop stop-opacity="1" stop-color="rgb(11.184692%, 63.265991%, 75.585938%)" offset="0.167969"/><stop stop-opacity="1" stop-color="rgb(11.436462%, 63.348389%, 75.363159%)" offset="0.171875"/><stop stop-opacity="1" stop-color="rgb(11.688232%, 63.430786%, 75.140381%)" offset="0.175781"/><stop stop-opacity="1" stop-color="rgb(11.940002%, 63.513184%, 74.917603%)" offset="0.179687"/><stop stop-opacity="1" stop-color="rgb(12.190247%, 63.595581%, 74.694824%)" offset="0.183594"/><stop stop-opacity="1" stop-color="rgb(12.442017%, 63.677979%, 74.472046%)" offset="0.1875"/><stop stop-opacity="1" stop-color="rgb(12.692261%, 63.760376%, 74.249268%)" offset="0.191406"/><stop stop-opacity="1" stop-color="rgb(12.944031%, 63.842773%, 74.026489%)" offset="0.195313"/><stop stop-opacity="1" stop-color="rgb(13.195801%, 63.925171%, 73.803711%)" offset="0.199219"/><stop stop-opacity="1" stop-color="rgb(13.447571%, 64.007568%, 73.580933%)" offset="0.203125"/><stop stop-opacity="1" stop-color="rgb(13.697815%, 64.089966%, 73.358154%)" offset="0.207031"/><stop stop-opacity="1" stop-color="rgb(13.949585%, 64.172363%, 73.136902%)" offset="0.210938"/><stop stop-opacity="1" stop-color="rgb(14.201355%, 64.254761%, 72.914124%)" offset="0.214844"/><stop stop-opacity="1" stop-color="rgb(14.453125%, 64.337158%, 72.691345%)" offset="0.21875"/><stop stop-opacity="1" stop-color="rgb(14.703369%, 64.419556%, 72.468567%)" offset="0.222656"/><stop stop-opacity="1" stop-color="rgb(14.955139%, 64.501953%, 72.245789%)" offset="0.226562"/><stop stop-opacity="1" stop-color="rgb(15.206909%, 64.584351%, 72.02301%)" offset="0.230469"/><stop stop-opacity="1" stop-color="rgb(15.458679%, 64.666748%, 71.800232%)" offset="0.234375"/><stop stop-opacity="1" stop-color="rgb(15.708923%, 64.749146%, 71.577454%)" offset="0.238281"/><stop stop-opacity="1" stop-color="rgb(15.960693%, 64.831543%, 71.354675%)" offset="0.242187"/><stop stop-opacity="1" stop-color="rgb(16.210938%, 64.91394%, 71.131897%)" offset="0.246094"/><stop stop-opacity="1" stop-color="rgb(16.462708%, 64.996338%, 70.909119%)" offset="0.25"/><stop stop-opacity="1" stop-color="rgb(16.714478%, 65.078735%, 70.68634%)" offset="0.253906"/><stop stop-opacity="1" stop-color="rgb(16.966248%, 65.161133%, 70.463562%)" offset="0.257812"/><stop stop-opacity="1" stop-color="rgb(17.216492%, 65.24353%, 70.240784%)" offset="0.261719"/><stop stop-opacity="1" stop-color="rgb(17.468262%, 65.325928%, 70.018005%)" offset="0.265625"/><stop stop-opacity="1" stop-color="rgb(17.720032%, 65.406799%, 69.795227%)" offset="0.269531"/><stop stop-opacity="1" stop-color="rgb(17.971802%, 65.489197%, 69.572449%)" offset="0.273438"/><stop stop-opacity="1" stop-color="rgb(18.222046%, 65.571594%, 69.34967%)" offset="0.277344"/><stop stop-opacity="1" stop-color="rgb(18.473816%, 65.653992%, 69.126892%)" offset="0.28125"/><stop stop-opacity="1" stop-color="rgb(18.725586%, 65.736389%, 68.904114%)" offset="0.285156"/><stop stop-opacity="1" stop-color="rgb(18.977356%, 65.818787%, 68.681335%)" offset="0.289062"/><stop stop-opacity="1" stop-color="rgb(19.2276%, 65.901184%, 68.458557%)" offset="0.292969"/><stop stop-opacity="1" stop-color="rgb(19.47937%, 65.983582%, 68.235779%)" offset="0.296875"/><stop stop-opacity="1" stop-color="rgb(19.729614%, 66.065979%, 68.013%)" offset="0.300781"/><stop stop-opacity="1" stop-color="rgb(19.981384%, 66.148376%, 67.790222%)" offset="0.304688"/><stop stop-opacity="1" stop-color="rgb(20.233154%, 66.230774%, 67.567444%)" offset="0.308594"/><stop stop-opacity="1" stop-color="rgb(20.484924%, 66.313171%, 67.344666%)" offset="0.3125"/><stop stop-opacity="1" stop-color="rgb(20.735168%, 66.395569%, 67.121887%)" offset="0.316406"/><stop stop-opacity="1" stop-color="rgb(20.986938%, 66.477966%, 66.899109%)" offset="0.320312"/><stop stop-opacity="1" stop-color="rgb(21.238708%, 66.560364%, 66.676331%)" offset="0.324219"/><stop stop-opacity="1" stop-color="rgb(21.490479%, 66.642761%, 66.453552%)" offset="0.328125"/><stop stop-opacity="1" stop-color="rgb(21.740723%, 66.725159%, 66.230774%)" offset="0.332031"/><stop stop-opacity="1" stop-color="rgb(21.992493%, 66.807556%, 66.009521%)" offset="0.335937"/><stop stop-opacity="1" stop-color="rgb(22.244263%, 66.889954%, 65.786743%)" offset="0.339844"/><stop stop-opacity="1" stop-color="rgb(22.496033%, 66.972351%, 65.563965%)" offset="0.34375"/><stop stop-opacity="1" stop-color="rgb(22.746277%, 67.054749%, 65.341187%)" offset="0.347656"/><stop stop-opacity="1" stop-color="rgb(22.998047%, 67.137146%, 65.118408%)" offset="0.351562"/><stop stop-opacity="1" stop-color="rgb(23.248291%, 67.219543%, 64.89563%)" offset="0.355469"/><stop stop-opacity="1" stop-color="rgb(23.500061%, 67.301941%, 64.672852%)" offset="0.359375"/><stop stop-opacity="1" stop-color="rgb(23.751831%, 67.384338%, 64.450073%)" offset="0.363281"/><stop stop-opacity="1" stop-color="rgb(24.003601%, 67.466736%, 64.227295%)" offset="0.367188"/><stop stop-opacity="1" stop-color="rgb(24.253845%, 67.549133%, 64.004517%)" offset="0.371094"/><stop stop-opacity="1" stop-color="rgb(24.505615%, 67.631531%, 63.781738%)" offset="0.375"/><stop stop-opacity="1" stop-color="rgb(24.757385%, 67.713928%, 63.55896%)" offset="0.378906"/><stop stop-opacity="1" stop-color="rgb(25.009155%, 67.796326%, 63.336182%)" offset="0.382812"/><stop stop-opacity="1" stop-color="rgb(25.259399%, 67.878723%, 63.113403%)" offset="0.386719"/><stop stop-opacity="1" stop-color="rgb(25.511169%, 67.961121%, 62.890625%)" offset="0.390625"/><stop stop-opacity="1" stop-color="rgb(25.762939%, 68.043518%, 62.667847%)" offset="0.394531"/><stop stop-opacity="1" stop-color="rgb(26.014709%, 68.125916%, 62.445068%)" offset="0.398438"/><stop stop-opacity="1" stop-color="rgb(26.264954%, 68.208313%, 62.22229%)" offset="0.402344"/><stop stop-opacity="1" stop-color="rgb(26.516724%, 68.29071%, 61.999512%)" offset="0.40625"/><stop stop-opacity="1" stop-color="rgb(26.766968%, 68.373108%, 61.776733%)" offset="0.410156"/><stop stop-opacity="1" stop-color="rgb(27.018738%, 68.455505%, 61.553955%)" offset="0.414062"/><stop stop-opacity="1" stop-color="rgb(27.270508%, 68.537903%, 61.331177%)" offset="0.417969"/><stop stop-opacity="1" stop-color="rgb(27.522278%, 68.6203%, 61.108398%)" offset="0.421875"/><stop stop-opacity="1" stop-color="rgb(27.772522%, 68.702698%, 60.88562%)" offset="0.425781"/><stop stop-opacity="1" stop-color="rgb(28.024292%, 68.785095%, 60.662842%)" offset="0.429688"/><stop stop-opacity="1" stop-color="rgb(28.276062%, 68.867493%, 60.440063%)" offset="0.433594"/><stop stop-opacity="1" stop-color="rgb(28.527832%, 68.94989%, 60.217285%)" offset="0.4375"/><stop stop-opacity="1" stop-color="rgb(28.778076%, 69.032288%, 59.994507%)" offset="0.441406"/><stop stop-opacity="1" stop-color="rgb(29.029846%, 69.114685%, 59.771729%)" offset="0.445312"/><stop stop-opacity="1" stop-color="rgb(29.281616%, 69.197083%, 59.54895%)" offset="0.449219"/><stop stop-opacity="1" stop-color="rgb(29.533386%, 69.27948%, 59.326172%)" offset="0.453125"/><stop stop-opacity="1" stop-color="rgb(29.78363%, 69.361877%, 59.103394%)" offset="0.457031"/><stop stop-opacity="1" stop-color="rgb(30.0354%, 69.444275%, 58.880615%)" offset="0.460938"/><stop stop-opacity="1" stop-color="rgb(30.285645%, 69.526672%, 58.657837%)" offset="0.464844"/><stop stop-opacity="1" stop-color="rgb(30.537415%, 69.60907%, 58.436584%)" offset="0.46875"/><stop stop-opacity="1" stop-color="rgb(30.789185%, 69.691467%, 58.213806%)" offset="0.472656"/><stop stop-opacity="1" stop-color="rgb(31.040955%, 69.773865%, 57.991028%)" offset="0.476562"/><stop stop-opacity="1" stop-color="rgb(31.291199%, 69.856262%, 57.76825%)" offset="0.480469"/><stop stop-opacity="1" stop-color="rgb(31.542969%, 69.93866%, 57.545471%)" offset="0.484375"/><stop stop-opacity="1" stop-color="rgb(31.794739%, 70.021057%, 57.322693%)" offset="0.488281"/><stop stop-opacity="1" stop-color="rgb(32.046509%, 70.103455%, 57.099915%)" offset="0.492188"/><stop stop-opacity="1" stop-color="rgb(32.296753%, 70.185852%, 56.877136%)" offset="0.496094"/><stop stop-opacity="1" stop-color="rgb(32.548523%, 70.26825%, 56.654358%)" offset="0.5"/><stop stop-opacity="1" stop-color="rgb(32.800293%, 70.350647%, 56.43158%)" offset="0.503906"/><stop stop-opacity="1" stop-color="rgb(33.052063%, 70.433044%, 56.208801%)" offset="0.507812"/><stop stop-opacity="1" stop-color="rgb(33.302307%, 70.515442%, 55.986023%)" offset="0.511719"/><stop stop-opacity="1" stop-color="rgb(33.554077%, 70.597839%, 55.763245%)" offset="0.515625"/><stop stop-opacity="1" stop-color="rgb(33.805847%, 70.680237%, 55.540466%)" offset="0.519531"/><stop stop-opacity="1" stop-color="rgb(34.057617%, 70.762634%, 55.317688%)" offset="0.523438"/><stop stop-opacity="1" stop-color="rgb(34.307861%, 70.845032%, 55.09491%)" offset="0.527344"/><stop stop-opacity="1" stop-color="rgb(34.559631%, 70.927429%, 54.872131%)" offset="0.53125"/><stop stop-opacity="1" stop-color="rgb(34.809875%, 71.009827%, 54.649353%)" offset="0.535156"/><stop stop-opacity="1" stop-color="rgb(35.061646%, 71.092224%, 54.426575%)" offset="0.539063"/><stop stop-opacity="1" stop-color="rgb(35.313416%, 71.174622%, 54.203796%)" offset="0.542969"/><stop stop-opacity="1" stop-color="rgb(35.565186%, 71.257019%, 53.981018%)" offset="0.546875"/><stop stop-opacity="1" stop-color="rgb(35.81543%, 71.339417%, 53.75824%)" offset="0.550781"/><stop stop-opacity="1" stop-color="rgb(36.0672%, 71.421814%, 53.535461%)" offset="0.554688"/><stop stop-opacity="1" stop-color="rgb(36.31897%, 71.504211%, 53.312683%)" offset="0.558594"/><stop stop-opacity="1" stop-color="rgb(36.57074%, 71.586609%, 53.089905%)" offset="0.5625"/><stop stop-opacity="1" stop-color="rgb(36.820984%, 71.669006%, 52.867126%)" offset="0.566406"/><stop stop-opacity="1" stop-color="rgb(37.072754%, 71.751404%, 52.644348%)" offset="0.570313"/><stop stop-opacity="1" stop-color="rgb(37.324524%, 71.833801%, 52.42157%)" offset="0.574219"/><stop stop-opacity="1" stop-color="rgb(37.576294%, 71.916199%, 52.198792%)" offset="0.578125"/><stop stop-opacity="1" stop-color="rgb(37.826538%, 71.998596%, 51.976013%)" offset="0.582031"/><stop stop-opacity="1" stop-color="rgb(38.078308%, 72.080994%, 51.753235%)" offset="0.585937"/><stop stop-opacity="1" stop-color="rgb(38.328552%, 72.163391%, 51.530457%)" offset="0.589844"/><stop stop-opacity="1" stop-color="rgb(38.580322%, 72.245789%, 51.309204%)" offset="0.59375"/><stop stop-opacity="1" stop-color="rgb(38.832092%, 72.328186%, 51.086426%)" offset="0.597656"/><stop stop-opacity="1" stop-color="rgb(39.083862%, 72.410583%, 50.863647%)" offset="0.601562"/><stop stop-opacity="1" stop-color="rgb(39.334106%, 72.492981%, 50.640869%)" offset="0.605469"/><stop stop-opacity="1" stop-color="rgb(39.585876%, 72.575378%, 50.418091%)" offset="0.609375"/><stop stop-opacity="1" stop-color="rgb(39.837646%, 72.657776%, 50.195312%)" offset="0.613281"/><stop stop-opacity="1" stop-color="rgb(40.089417%, 72.740173%, 49.972534%)" offset="0.617187"/><stop stop-opacity="1" stop-color="rgb(40.339661%, 72.821045%, 49.749756%)" offset="0.621094"/><stop stop-opacity="1" stop-color="rgb(40.591431%, 72.903442%, 49.526978%)" offset="0.625"/><stop stop-opacity="1" stop-color="rgb(40.843201%, 72.98584%, 49.304199%)" offset="0.628906"/><stop stop-opacity="1" stop-color="rgb(41.094971%, 73.068237%, 49.081421%)" offset="0.632812"/><stop stop-opacity="1" stop-color="rgb(41.345215%, 73.150635%, 48.858643%)" offset="0.636719"/><stop stop-opacity="1" stop-color="rgb(41.596985%, 73.233032%, 48.635864%)" offset="0.640625"/><stop stop-opacity="1" stop-color="rgb(41.847229%, 73.31543%, 48.413086%)" offset="0.644531"/><stop stop-opacity="1" stop-color="rgb(42.098999%, 73.397827%, 48.190308%)" offset="0.648437"/><stop stop-opacity="1" stop-color="rgb(42.350769%, 73.480225%, 47.967529%)" offset="0.652344"/><stop stop-opacity="1" stop-color="rgb(42.602539%, 73.562622%, 47.744751%)" offset="0.65625"/><stop stop-opacity="1" stop-color="rgb(42.852783%, 73.64502%, 47.521973%)" offset="0.660156"/><stop stop-opacity="1" stop-color="rgb(43.104553%, 73.727417%, 47.299194%)" offset="0.664062"/><stop stop-opacity="1" stop-color="rgb(43.356323%, 73.809814%, 47.076416%)" offset="0.667969"/><stop stop-opacity="1" stop-color="rgb(43.608093%, 73.892212%, 46.853638%)" offset="0.671875"/><stop stop-opacity="1" stop-color="rgb(43.858337%, 73.974609%, 46.630859%)" offset="0.675781"/><stop stop-opacity="1" stop-color="rgb(44.110107%, 74.057007%, 46.408081%)" offset="0.679687"/><stop stop-opacity="1" stop-color="rgb(44.361877%, 74.139404%, 46.185303%)" offset="0.683594"/><stop stop-opacity="1" stop-color="rgb(44.613647%, 74.221802%, 45.962524%)" offset="0.6875"/><stop stop-opacity="1" stop-color="rgb(44.863892%, 74.304199%, 45.739746%)" offset="0.691406"/><stop stop-opacity="1" stop-color="rgb(45.115662%, 74.386597%, 45.516968%)" offset="0.695312"/><stop stop-opacity="1" stop-color="rgb(45.365906%, 74.468994%, 45.294189%)" offset="0.699219"/><stop stop-opacity="1" stop-color="rgb(45.617676%, 74.551392%, 45.071411%)" offset="0.703125"/><stop stop-opacity="1" stop-color="rgb(45.869446%, 74.633789%, 44.848633%)" offset="0.707031"/><stop stop-opacity="1" stop-color="rgb(46.121216%, 74.716187%, 44.625854%)" offset="0.710937"/><stop stop-opacity="1" stop-color="rgb(46.37146%, 74.798584%, 44.403076%)" offset="0.714844"/><stop stop-opacity="1" stop-color="rgb(46.62323%, 74.880981%, 44.181824%)" offset="0.71875"/><stop stop-opacity="1" stop-color="rgb(46.875%, 74.963379%, 43.959045%)" offset="0.722656"/><stop stop-opacity="1" stop-color="rgb(47.12677%, 75.045776%, 43.736267%)" offset="0.726562"/><stop stop-opacity="1" stop-color="rgb(47.377014%, 75.128174%, 43.513489%)" offset="0.730469"/><stop stop-opacity="1" stop-color="rgb(47.628784%, 75.210571%, 43.29071%)" offset="0.734375"/><stop stop-opacity="1" stop-color="rgb(47.880554%, 75.292969%, 43.067932%)" offset="0.738281"/><stop stop-opacity="1" stop-color="rgb(48.132324%, 75.375366%, 42.845154%)" offset="0.742188"/><stop stop-opacity="1" stop-color="rgb(48.382568%, 75.457764%, 42.622375%)" offset="0.746094"/><stop stop-opacity="1" stop-color="rgb(48.634338%, 75.540161%, 42.399597%)" offset="0.75"/><stop stop-opacity="1" stop-color="rgb(48.884583%, 75.622559%, 42.176819%)" offset="0.753906"/><stop stop-opacity="1" stop-color="rgb(49.136353%, 75.704956%, 41.954041%)" offset="0.757812"/><stop stop-opacity="1" stop-color="rgb(49.388123%, 75.787354%, 41.731262%)" offset="0.761719"/><stop stop-opacity="1" stop-color="rgb(49.639893%, 75.869751%, 41.508484%)" offset="0.765625"/><stop stop-opacity="1" stop-color="rgb(49.890137%, 75.952148%, 41.285706%)" offset="0.769531"/><stop stop-opacity="1" stop-color="rgb(50.141907%, 76.034546%, 41.062927%)" offset="0.773438"/><stop stop-opacity="1" stop-color="rgb(50.393677%, 76.116943%, 40.840149%)" offset="0.777344"/><stop stop-opacity="1" stop-color="rgb(50.645447%, 76.199341%, 40.617371%)" offset="0.78125"/><stop stop-opacity="1" stop-color="rgb(50.895691%, 76.281738%, 40.394592%)" offset="0.785156"/><stop stop-opacity="1" stop-color="rgb(51.147461%, 76.364136%, 40.171814%)" offset="0.789063"/><stop stop-opacity="1" stop-color="rgb(51.399231%, 76.446533%, 39.949036%)" offset="0.792969"/><stop stop-opacity="1" stop-color="rgb(51.651001%, 76.528931%, 39.726257%)" offset="0.796875"/><stop stop-opacity="1" stop-color="rgb(51.901245%, 76.611328%, 39.503479%)" offset="0.800781"/><stop stop-opacity="1" stop-color="rgb(52.153015%, 76.693726%, 39.280701%)" offset="0.804688"/><stop stop-opacity="1" stop-color="rgb(52.403259%, 76.776123%, 39.057922%)" offset="0.808594"/><stop stop-opacity="1" stop-color="rgb(52.655029%, 76.858521%, 38.835144%)" offset="0.8125"/><stop stop-opacity="1" stop-color="rgb(52.906799%, 76.940918%, 38.612366%)" offset="0.816406"/><stop stop-opacity="1" stop-color="rgb(53.158569%, 77.023315%, 38.389587%)" offset="0.820313"/><stop stop-opacity="1" stop-color="rgb(53.408813%, 77.105713%, 38.166809%)" offset="0.824219"/><stop stop-opacity="1" stop-color="rgb(53.660583%, 77.18811%, 37.944031%)" offset="0.828125"/><stop stop-opacity="1" stop-color="rgb(53.912354%, 77.270508%, 37.721252%)" offset="0.832031"/><stop stop-opacity="1" stop-color="rgb(54.164124%, 77.352905%, 37.498474%)" offset="0.835938"/><stop stop-opacity="1" stop-color="rgb(54.414368%, 77.435303%, 37.275696%)" offset="0.839844"/><stop stop-opacity="1" stop-color="rgb(54.666138%, 77.5177%, 37.052917%)" offset="0.84375"/><stop stop-opacity="1" stop-color="rgb(54.917908%, 77.600098%, 36.830139%)" offset="0.847656"/><stop stop-opacity="1" stop-color="rgb(55.169678%, 77.682495%, 36.608887%)" offset="0.851563"/><stop stop-opacity="1" stop-color="rgb(55.419922%, 77.764893%, 36.386108%)" offset="0.855469"/><stop stop-opacity="1" stop-color="rgb(55.671692%, 77.84729%, 36.16333%)" offset="0.859375"/><stop stop-opacity="1" stop-color="rgb(55.921936%, 77.929688%, 35.940552%)" offset="0.863281"/><stop stop-opacity="1" stop-color="rgb(56.173706%, 78.012085%, 35.717773%)" offset="0.867187"/><stop stop-opacity="1" stop-color="rgb(56.425476%, 78.094482%, 35.494995%)" offset="0.871094"/><stop stop-opacity="1" stop-color="rgb(56.677246%, 78.17688%, 35.272217%)" offset="0.875"/><stop stop-opacity="1" stop-color="rgb(56.92749%, 78.259277%, 35.049438%)" offset="0.878906"/><stop stop-opacity="1" stop-color="rgb(57.17926%, 78.341675%, 34.82666%)" offset="0.882812"/><stop stop-opacity="1" stop-color="rgb(57.43103%, 78.424072%, 34.603882%)" offset="0.886719"/><stop stop-opacity="1" stop-color="rgb(57.6828%, 78.50647%, 34.381104%)" offset="0.890625"/><stop stop-opacity="1" stop-color="rgb(57.933044%, 78.588867%, 34.158325%)" offset="0.894531"/><stop stop-opacity="1" stop-color="rgb(58.184814%, 78.671265%, 33.935547%)" offset="0.898437"/><stop stop-opacity="1" stop-color="rgb(58.436584%, 78.753662%, 33.712769%)" offset="0.902344"/><stop stop-opacity="1" stop-color="rgb(58.688354%, 78.83606%, 33.48999%)" offset="0.90625"/><stop stop-opacity="1" stop-color="rgb(58.938599%, 78.918457%, 33.267212%)" offset="0.910156"/><stop stop-opacity="1" stop-color="rgb(59.190369%, 79.000854%, 33.044434%)" offset="0.914062"/><stop stop-opacity="1" stop-color="rgb(59.442139%, 79.083252%, 32.821655%)" offset="0.917969"/><stop stop-opacity="1" stop-color="rgb(59.693909%, 79.165649%, 32.598877%)" offset="0.921875"/><stop stop-opacity="1" stop-color="rgb(59.944153%, 79.248047%, 32.376099%)" offset="0.925781"/><stop stop-opacity="1" stop-color="rgb(60.195923%, 79.330444%, 32.15332%)" offset="0.929687"/><stop stop-opacity="1" stop-color="rgb(60.446167%, 79.412842%, 31.930542%)" offset="0.933594"/><stop stop-opacity="1" stop-color="rgb(60.697937%, 79.495239%, 31.707764%)" offset="0.9375"/><stop stop-opacity="1" stop-color="rgb(60.949707%, 79.577637%, 31.484985%)" offset="0.941406"/><stop stop-opacity="1" stop-color="rgb(61.201477%, 79.660034%, 31.262207%)" offset="0.945312"/><stop stop-opacity="1" stop-color="rgb(61.451721%, 79.742432%, 31.039429%)" offset="0.949219"/><stop stop-opacity="1" stop-color="rgb(61.703491%, 79.824829%, 30.81665%)" offset="0.953125"/><stop stop-opacity="1" stop-color="rgb(61.955261%, 79.907227%, 30.593872%)" offset="0.957031"/><stop stop-opacity="1" stop-color="rgb(62.207031%, 79.989624%, 30.371094%)" offset="0.960937"/><stop stop-opacity="1" stop-color="rgb(62.457275%, 80.070496%, 30.148315%)" offset="0.964844"/><stop stop-opacity="1" stop-color="rgb(62.709045%, 80.152893%, 29.925537%)" offset="0.96875"/><stop stop-opacity="1" stop-color="rgb(62.960815%, 80.235291%, 29.702759%)" offset="0.972656"/><stop stop-opacity="1" stop-color="rgb(63.212585%, 80.317688%, 29.481506%)" offset="0.976562"/><stop stop-opacity="1" stop-color="rgb(63.46283%, 80.400085%, 29.258728%)" offset="0.980469"/><stop stop-opacity="1" stop-color="rgb(63.7146%, 80.482483%, 29.03595%)" offset="0.984375"/><stop stop-opacity="1" stop-color="rgb(63.964844%, 80.56488%, 28.813171%)" offset="0.988281"/><stop stop-opacity="1" stop-color="rgb(64.216614%, 80.647278%, 28.590393%)" offset="0.992188"/><stop stop-opacity="1" stop-color="rgb(64.468384%, 80.729675%, 28.367615%)" offset="0.996094"/><stop stop-opacity="1" stop-color="rgb(64.720154%, 80.812073%, 28.144836%)" offset="1"/></linearGradient></defs><g clip-path="url(#48a3116d49)"><g clip-path="url(#302f29edc1)"><path fill="url(#845f597596)" d="M 133.855469 74.519531 L 133.855469 237.269531 L 241.042969 237.269531 L 241.042969 74.519531 Z M 133.855469 74.519531 " fill-rule="nonzero"/></g></g><g fill="#a8cf45" fill-opacity="1"><g transform="translate(47.086363, 289.673044)"><g><path d="M 38 -32.71875 C 38.25 -32.25 38.394531 -31.828125 38.4375 -31.453125 C 38.488281 -31.085938 38.515625 -30.550781 38.515625 -29.84375 L 38.515625 -4.078125 C 38.515625 -1.941406 37.925781 -0.691406 36.75 -0.328125 C 36.164062 -0.140625 35.425781 -0.046875 34.53125 -0.046875 C 33.632812 -0.046875 32.921875 -0.125 32.390625 -0.28125 C 31.867188 -0.4375 31.46875 -0.617188 31.1875 -0.828125 C 30.90625 -1.046875 30.6875 -1.359375 30.53125 -1.765625 C 30.375 -2.285156 30.296875 -3.085938 30.296875 -4.171875 L 30.296875 -19.71875 C 29.523438 -18.757812 28.394531 -17.234375 26.90625 -15.140625 C 25.425781 -13.054688 24.484375 -11.75 24.078125 -11.21875 C 23.679688 -10.695312 23.40625 -10.335938 23.25 -10.140625 C 23.09375 -9.941406 22.710938 -9.660156 22.109375 -9.296875 C 21.503906 -8.941406 20.851562 -8.765625 20.15625 -8.765625 C 19.46875 -8.765625 18.835938 -8.925781 18.265625 -9.25 C 17.691406 -9.582031 17.28125 -9.898438 17.03125 -10.203125 L 16.65625 -10.71875 C 16.039062 -11.488281 14.816406 -13.132812 12.984375 -15.65625 C 11.160156 -18.175781 10.175781 -19.53125 10.03125 -19.71875 L 10.03125 -4.078125 C 10.03125 -3.367188 10.003906 -2.835938 9.953125 -2.484375 C 9.910156 -2.128906 9.765625 -1.734375 9.515625 -1.296875 C 9.046875 -0.460938 7.835938 -0.046875 5.890625 -0.046875 C 4.003906 -0.046875 2.828125 -0.460938 2.359375 -1.296875 C 2.117188 -1.734375 1.972656 -2.132812 1.921875 -2.5 C 1.878906 -2.875 1.859375 -3.429688 1.859375 -4.171875 L 1.859375 -29.9375 C 1.859375 -30.644531 1.878906 -31.175781 1.921875 -31.53125 C 1.972656 -31.882812 2.117188 -32.296875 2.359375 -32.765625 C 2.828125 -33.566406 4.035156 -33.96875 5.984375 -33.96875 C 6.816406 -33.96875 7.535156 -33.863281 8.140625 -33.65625 C 8.742188 -33.457031 9.140625 -33.253906 9.328125 -33.046875 L 9.609375 -32.765625 L 20.140625 -18.9375 C 25.398438 -25.894531 28.910156 -30.488281 30.671875 -32.71875 C 31.203125 -33.550781 32.445312 -33.96875 34.40625 -33.96875 C 36.375 -33.96875 37.570312 -33.550781 38 -32.71875 Z M 38 -32.71875 "/></g></g></g><g fill="#a8cf45" fill-opacity="1"><g transform="translate(98.640742, 289.673044)"><g><path d="M 10.0625 -8.21875 L 24.359375 -8.21875 C 25.078125 -8.21875 25.613281 -8.191406 25.96875 -8.140625 C 26.320312 -8.097656 26.726562 -7.953125 27.1875 -7.703125 C 28.03125 -7.265625 28.453125 -6.054688 28.453125 -4.078125 C 28.453125 -1.910156 27.878906 -0.644531 26.734375 -0.28125 C 26.203125 -0.09375 25.394531 0 24.3125 0 L 5.9375 0 C 3.769531 0 2.503906 -0.585938 2.140625 -1.765625 C 1.953125 -2.253906 1.859375 -3.039062 1.859375 -4.125 L 1.859375 -29.9375 C 1.859375 -31.507812 2.148438 -32.582031 2.734375 -33.15625 C 3.328125 -33.726562 4.441406 -34.015625 6.078125 -34.015625 L 24.359375 -34.015625 C 25.078125 -34.015625 25.613281 -33.988281 25.96875 -33.9375 C 26.320312 -33.894531 26.726562 -33.75 27.1875 -33.5 C 28.03125 -33.070312 28.453125 -31.867188 28.453125 -29.890625 C 28.453125 -27.722656 27.878906 -26.453125 26.734375 -26.078125 C 26.203125 -25.890625 25.394531 -25.796875 24.3125 -25.796875 L 10.0625 -25.796875 L 10.0625 -21.109375 L 19.265625 -21.109375 C 19.972656 -21.109375 20.503906 -21.082031 20.859375 -21.03125 C 21.210938 -20.988281 21.625 -20.847656 22.09375 -20.609375 C 22.925781 -20.171875 23.34375 -18.960938 23.34375 -16.984375 C 23.34375 -14.816406 22.753906 -13.546875 21.578125 -13.171875 C 21.054688 -12.992188 20.253906 -12.90625 19.171875 -12.90625 L 10.0625 -12.90625 Z M 10.0625 -8.21875 "/></g></g></g><g fill="#a8cf45" fill-opacity="1"><g transform="translate(139.429814, 289.673044)"><g><path d="M 10.0625 -6.875 L 22.6875 -6.875 C 23.707031 -6.875 24.445312 -6.753906 24.90625 -6.515625 C 25.375 -6.285156 25.6875 -5.921875 25.84375 -5.421875 C 26 -4.929688 26.078125 -4.273438 26.078125 -3.453125 C 26.078125 -2.640625 26 -1.984375 25.84375 -1.484375 C 25.6875 -0.992188 25.425781 -0.65625 25.0625 -0.46875 C 24.46875 -0.15625 23.660156 0 22.640625 0 L 5.9375 0 C 3.769531 0 2.503906 -0.585938 2.140625 -1.765625 C 1.953125 -2.253906 1.859375 -3.039062 1.859375 -4.125 L 1.859375 -29.9375 C 1.859375 -30.644531 1.878906 -31.175781 1.921875 -31.53125 C 1.972656 -31.882812 2.117188 -32.296875 2.359375 -32.765625 C 2.796875 -33.597656 4.003906 -34.015625 5.984375 -34.015625 C 8.148438 -34.015625 9.4375 -33.441406 9.84375 -32.296875 C 9.988281 -31.773438 10.0625 -30.972656 10.0625 -29.890625 Z M 10.0625 -6.875 "/></g></g></g><g fill="#a8cf45" fill-opacity="1"><g transform="translate(177.852379, 289.673044)"><g><path d="M 17.8125 -34.4375 C 22.394531 -34.4375 26.375 -32.78125 29.75 -29.46875 C 33.125 -26.15625 34.8125 -22.046875 34.8125 -17.140625 C 34.8125 -12.242188 33.203125 -8.066406 29.984375 -4.609375 C 26.765625 -1.160156 22.800781 0.5625 18.09375 0.5625 C 13.394531 0.5625 9.394531 -1.140625 6.09375 -4.546875 C 2.800781 -7.953125 1.15625 -12.003906 1.15625 -16.703125 C 1.15625 -19.273438 1.617188 -21.679688 2.546875 -23.921875 C 3.472656 -26.160156 4.707031 -28.035156 6.25 -29.546875 C 7.800781 -31.066406 9.582031 -32.257812 11.59375 -33.125 C 13.613281 -34 15.6875 -34.4375 17.8125 -34.4375 Z M 9.375 -16.9375 C 9.375 -14.1875 10.257812 -11.953125 12.03125 -10.234375 C 13.8125 -8.515625 15.800781 -7.65625 18 -7.65625 C 20.195312 -7.65625 22.175781 -8.488281 23.9375 -10.15625 C 25.707031 -11.832031 26.59375 -14.078125 26.59375 -16.890625 C 26.59375 -19.703125 25.703125 -21.957031 23.921875 -23.65625 C 22.140625 -25.363281 20.148438 -26.21875 17.953125 -26.21875 C 15.765625 -26.21875 13.785156 -25.359375 12.015625 -23.640625 C 10.253906 -21.921875 9.375 -19.6875 9.375 -16.9375 Z M 9.375 -16.9375 "/></g></g></g><g fill="#a8cf45" fill-opacity="1"><g transform="translate(224.998548, 289.673044)"><g><path d="M 5.984375 -34.0625 L 14.578125 -34.015625 C 19.054688 -34.015625 23 -32.394531 26.40625 -29.15625 C 29.8125 -25.925781 31.515625 -21.953125 31.515625 -17.234375 C 31.515625 -12.515625 29.847656 -8.46875 26.515625 -5.09375 C 23.191406 -1.726562 19.164062 -0.046875 14.4375 -0.046875 L 5.9375 -0.046875 C 4.050781 -0.046875 2.875 -0.429688 2.40625 -1.203125 C 2.039062 -1.859375 1.859375 -2.847656 1.859375 -4.171875 L 1.859375 -29.984375 C 1.859375 -30.722656 1.878906 -31.257812 1.921875 -31.59375 C 1.972656 -31.9375 2.117188 -32.34375 2.359375 -32.8125 C 2.796875 -33.644531 4.003906 -34.0625 5.984375 -34.0625 Z M 14.578125 -8.265625 C 16.796875 -8.265625 18.800781 -9.085938 20.59375 -10.734375 C 22.394531 -12.390625 23.296875 -14.472656 23.296875 -16.984375 C 23.296875 -19.492188 22.421875 -21.585938 20.671875 -23.265625 C 18.921875 -24.953125 16.875 -25.796875 14.53125 -25.796875 L 10.0625 -25.796875 L 10.0625 -8.265625 Z M 14.578125 -8.265625 "/></g></g></g><g fill="#a8cf45" fill-opacity="1"><g transform="translate(268.850165, 289.673044)"><g><path d="M 1.859375 -29.9375 C 1.859375 -30.644531 1.878906 -31.175781 1.921875 -31.53125 C 1.972656 -31.882812 2.117188 -32.296875 2.359375 -32.765625 C 2.796875 -33.597656 4.003906 -34.015625 5.984375 -34.015625 C 8.148438 -34.015625 9.4375 -33.441406 9.84375 -32.296875 C 9.988281 -31.773438 10.0625 -30.972656 10.0625 -29.890625 L 10.0625 -4.078125 C 10.0625 -3.335938 10.039062 -2.796875 10 -2.453125 C 9.957031 -2.117188 9.8125 -1.71875 9.5625 -1.25 C 9.125 -0.414062 7.914062 0 5.9375 0 C 3.769531 0 2.503906 -0.585938 2.140625 -1.765625 C 1.953125 -2.253906 1.859375 -3.039062 1.859375 -4.125 Z M 1.859375 -29.9375 "/></g></g></g><g fill="#a8cf45" fill-opacity="1"><g transform="translate(291.960024, 289.673044)"><g><path d="M 17.8125 -34.4375 C 22.394531 -34.4375 26.375 -32.78125 29.75 -29.46875 C 33.125 -26.15625 34.8125 -22.046875 34.8125 -17.140625 C 34.8125 -12.242188 33.203125 -8.066406 29.984375 -4.609375 C 26.765625 -1.160156 22.800781 0.5625 18.09375 0.5625 C 13.394531 0.5625 9.394531 -1.140625 6.09375 -4.546875 C 2.800781 -7.953125 1.15625 -12.003906 1.15625 -16.703125 C 1.15625 -19.273438 1.617188 -21.679688 2.546875 -23.921875 C 3.472656 -26.160156 4.707031 -28.035156 6.25 -29.546875 C 7.800781 -31.066406 9.582031 -32.257812 11.59375 -33.125 C 13.613281 -34 15.6875 -34.4375 17.8125 -34.4375 Z M 9.375 -16.9375 C 9.375 -14.1875 10.257812 -11.953125 12.03125 -10.234375 C 13.8125 -8.515625 15.800781 -7.65625 18 -7.65625 C 20.195312 -7.65625 22.175781 -8.488281 23.9375 -10.15625 C 25.707031 -11.832031 26.59375 -14.078125 26.59375 -16.890625 C 26.59375 -19.703125 25.703125 -21.957031 23.921875 -23.65625 C 22.140625 -25.363281 20.148438 -26.21875 17.953125 -26.21875 C 15.765625 -26.21875 13.785156 -25.359375 12.015625 -23.640625 C 10.253906 -21.921875 9.375 -19.6875 9.375 -16.9375 Z M 9.375 -16.9375 "/></g></g></g></svg>